<?xml version="1.0" standalone="no"?>
<!DOCTYPE svg PUBLIC "-//W3C//DTD SVG 20010904//EN"
 "http://www.w3.org/TR/2001/REC-SVG-20010904/DTD/svg10.dtd">
<svg version="1.0" xmlns="http://www.w3.org/2000/svg"
 width="150.000000pt" height="150.000000pt" viewBox="0 0 150.000000 150.000000"
 preserveAspectRatio="xMidYMid meet">
<metadata>
Created by potrace 1.14, written by Peter Selinger 2001-2017
</metadata>
<g transform="translate(0.000000,150.000000) scale(0.100000,-0.100000)"
fill="#000000" stroke="none">
<path d="M1175 1357 c-194 -137 -444 -242 -645 -271 -19 -2 -57 -8 -85 -12
-27 -4 -108 -8 -180 -8 -72 -1 -129 -4 -128 -8 0 -4 -7 -40 -18 -80 -10 -40
-19 -78 -19 -85 0 -6 42 -32 94 -57 237 -113 433 -275 586 -481 64 -87 150
-227 150 -246 0 -14 30 -10 105 14 95 30 94 29 84 79 -16 85 -4 375 20 488 39
187 105 355 202 514 l42 69 -66 64 c-37 35 -70 63 -74 62 -5 0 -35 -19 -68
-42z m-155 -383 c-46 -119 -89 -327 -99 -474 -1 -9 -7 -6 -18 10 -62 90 -236
255 -356 340 -54 38 -51 43 38 54 104 13 331 87 430 139 17 8 31 14 33 12 1
-1 -11 -38 -28 -81z"/>
</g>
</svg>
